HIERARCHY
ROOT SpineBase
{
  OFFSET 0.000000 0.000000 0.000000
  CHANNELS 6 Xposition Yposition Zposition Zrotation Xrotation Yrotation
  JOINT SpineMid
  {
    OFFSET -0.000000 30.832707 0.000000
    CHANNELS 3 Zrotation Xrotation Yrotation
    JOINT SpineShoulder
    {
      OFFSET -0.009826 22.753061 -0.757772
      CHANNELS 3 Zrotation Xrotation Yrotation
      JOINT Neck
      {
        OFFSET -0.001339 7.474530 -0.566031
        CHANNELS 3 Zrotation Xrotation Yrotation
        JOINT Head
        {
          OFFSET 0.161452 12.899493 -1.751517
          CHANNELS 3 Zrotation Xrotation Yrotation
          End Site
          {
            OFFSET 0 0 0
          }
        }
      }
      JOINT ShoulderLeft
      {
        OFFSET -16.695154 -4.009284 -1.145907
        CHANNELS 3 Zrotation Xrotation Yrotation
        JOINT ElbowLeft
        {
          OFFSET -0.982777 -28.063526 -1.596620
          CHANNELS 3 Zrotation Xrotation Yrotation
          JOINT WristLeft
          {
            OFFSET -0.515444 -24.763692 -7.413987
            CHANNELS 3 Zrotation Xrotation Yrotation
            JOINT HandLeft
            {
              OFFSET 1.181446 -5.203869 0.045808
              CHANNELS 3 Zrotation Xrotation Yrotation
              JOINT HandTipLeft
              {
                OFFSET -0.147248 -7.550269 -1.647850
                CHANNELS 3 Zrotation Xrotation Yrotation
                End Site
                {
                  OFFSET 0 0 0
                }
              }
              JOINT ThumbLeft
              {
                OFFSET -2.944274 -4.416418 -1.716377
                CHANNELS 3 Zrotation Xrotation Yrotation
                End Site
                {
                  OFFSET 0 0 0
                }
              }
            }
          }
        }
      }
      JOINT ShoulderRight
      {
        OFFSET 15.788619 -3.584252 -2.475823
        CHANNELS 3 Zrotation Xrotation Yrotation
        JOINT ElbowRight
        {
          OFFSET 1.157058 -26.626209 -2.602745
          CHANNELS 3 Zrotation Xrotation Yrotation
          JOINT WristRight
          {
            OFFSET -1.839768 -22.599535 -6.117240
            CHANNELS 3 Zrotation Xrotation Yrotation
            JOINT HandRight
            {
              OFFSET -1.791592 -3.780902 -1.086154
              CHANNELS 3 Zrotation Xrotation Yrotation
              JOINT HandTipRight
              {
                OFFSET 0.616240 -4.824174 -1.503976
                CHANNELS 3 Zrotation Xrotation Yrotation
                End Site
                {
                  OFFSET 0 0 0
                }
              }
              JOINT ThumbRight
              {
                OFFSET 1.947308 -1.559797 -3.425132
                CHANNELS 3 Zrotation Xrotation Yrotation
                End Site
                {
                  OFFSET 0 0 0
                }
              }
            }
          }
        }
      }
    }
  }
  JOINT HipLeft
  {
    OFFSET -7.152881 0.364780 -3.815486
    CHANNELS 3 Zrotation Xrotation Yrotation
    JOINT KneeLeft
    {
      OFFSET -2.755822 -29.794721 2.263168
      CHANNELS 3 Zrotation Xrotation Yrotation
      JOINT AnkleLeft
      {
        OFFSET 3.444456 -37.137315 11.941109
        CHANNELS 3 Zrotation Xrotation Yrotation
        JOINT FootLeft
        {
          OFFSET -1.523444 -8.380353 -7.758589
          CHANNELS 3 Zrotation Xrotation Yrotation
          End Site
          {
            OFFSET 0 0 0
          }
        }
      }
    }
  }
  JOINT HipRight
  {
    OFFSET 7.392624 0.083503 -3.707907
    CHANNELS 3 Zrotation Xrotation Yrotation
    JOINT KneeRight
    {
      OFFSET 4.907114 -30.801986 3.922176
      CHANNELS 3 Zrotation Xrotation Yrotation
      JOINT AnkleRight
      {
        OFFSET 0.142922 -36.026666 14.475620
        CHANNELS 3 Zrotation Xrotation Yrotation
        JOINT FootRight
        {
          OFFSET -1.265562 -7.827499 -6.499628
          CHANNELS 3 Zrotation Xrotation Yrotation
          End Site
          {
            OFFSET 0 0 0
          }
        }
      }
    }
  }
}
MOTION
Frames: 6
Frame Time: 0.033333
-11.513075 76.897094 366.117663 0.000000 0.000000 -0.423753 -0.000000 0.000000 0.423753 -0.000000 0.000000 0.000000 -0.000000 0.000000 0.000000 0.000000 0.000000 0.000000 -0.000000 0.000000 0.000000 -0.000000 0.000000 0.000000 -0.000000 0.000000 0.000000 -0.000000 0.000000 0.000000 0.000000 0.000000 0.000000 0.000000 0.000000 0.000000 -0.000000 0.000000 0.000000 -0.000000 0.000000 0.000000 -0.000000 0.000000 0.000000 -0.000000 0.000000 0.000000 0.000000 0.000000 0.000000 0.000000 0.000000 0.000000 -0.000000 0.000000 0.423753 -0.000000 0.000000 0.000000 -0.000000 0.000000 0.000000 0.000000 0.000000 0.000000 -0.000000 0.000000 0.423753 -0.000000 0.000000 0.000000 -0.000000 0.000000 0.000000 0.000000 0.000000 0.000000
-11.958567 76.768815 365.898159 -0.045050 0.173296 -0.344772 0.046093 -0.173021 0.344910 -0.000000 0.000000 0.000000 -0.000000 0.000000 0.000000 0.000000 0.000000 0.000000 -0.000000 0.000000 0.000000 -0.000000 0.000000 0.000000 0.132251 1.130417 0.256464 1.458089 -2.308897 -0.538338 0.000000 0.000000 0.000000 0.000000 0.000000 0.000000 -0.000000 0.000000 0.000000 -0.000000 0.000000 0.000000 -0.000000 0.000000 0.000000 -0.809308 -1.202302 0.090611 0.000000 0.000000 0.000000 0.000000 0.000000 0.000000 0.046093 -0.173021 0.344910 -0.000000 0.000000 0.000000 0.516973 -0.790549 -0.333744 0.000000 0.000000 0.000000 0.082907 -1.668645 0.111126 -0.033925 1.495692 0.234819 -0.000000 0.000000 0.000000 0.000000 0.000000 0.000000
-12.335033 76.660301 365.703537 -0.038814 0.255229 -0.315284 0.040219 -0.255012 0.315460 -0.000000 0.000000 0.000000 -0.000000 0.000000 0.000000 0.000000 0.000000 0.000000 -0.000000 0.000000 0.000000 1.059546 -0.332642 -0.307552 -0.624300 2.571043 0.815203 2.527855 -4.468726 -0.963165 0.000000 0.000000 0.000000 0.000000 0.000000 0.000000 -0.839582 0.385015 0.101623 2.026333 -0.856553 -0.367130 0.110879 -0.241042 0.249606 -2.789857 -1.836910 0.171801 0.000000 0.000000 0.000000 0.000000 0.000000 0.000000 0.040219 -0.255012 0.315460 -0.000000 0.000000 0.000000 0.935647 -1.433430 -0.601807 0.000000 0.000000 0.000000 0.103766 -2.720442 -0.068330 0.803404 2.635224 0.698644 -0.871153 -0.158960 -0.351691 0.000000 0.000000 0.000000
-12.642470 76.571553 365.533797 0.018518 0.246220 -0.334065 -0.017082 -0.246323 0.333989 -0.000000 0.000000 0.000000 -0.872801 -0.461430 -0.116178 0.000000 0.000000 0.000000 0.114946 0.802906 -0.035450 1.372847 -1.433261 -0.369888 -0.537589 3.966462 1.168272 3.192317 -6.478526 -1.304733 0.000000 0.000000 0.000000 0.000000 0.000000 0.000000 -1.046420 0.494444 0.128290 2.683885 -1.139908 -0.488616 0.419355 -0.296668 0.248567 -4.095146 -3.078061 0.253693 0.000000 0.000000 0.000000 0.000000 0.000000 0.000000 -0.017082 -0.246323 0.333989 0.772170 -0.775799 0.181051 0.479850 -1.149400 -0.993637 0.000000 0.000000 0.000000 0.070485 -3.154579 -0.116412 1.135918 3.007173 0.886086 -0.888439 -1.450031 -0.562890 0.000000 0.000000 0.000000
-12.880881 76.502569 365.388939 0.126840 0.146530 -0.400061 -0.125814 -0.147412 0.399737 -0.000000 0.000000 0.000000 -1.219294 -0.437682 -0.164636 0.000000 0.000000 0.000000 -0.000000 0.000000 0.000000 1.827918 -1.020331 -0.511319 -0.119851 5.446967 1.465130 3.422836 -8.339259 -1.591994 0.000000 0.000000 0.000000 0.000000 0.000000 0.000000 -1.110411 0.548563 0.137695 3.103905 -1.324585 -0.573627 0.879477 -0.301470 0.161971 -5.313694 -4.516965 0.330814 0.000000 0.000000 0.000000 0.000000 0.000000 0.000000 -0.125814 -0.147412 0.399737 0.924509 -0.963627 0.214927 0.547733 -1.295971 -1.172066 0.000000 0.000000 0.000000 -0.014535 -2.973087 -0.034520 1.424248 2.745329 0.981549 -1.156941 -2.128374 -0.579542 0.000000 0.000000 0.000000
-13.050264 76.453350 365.268963 0.286131 -0.043726 -0.512382 -0.286510 0.041165 0.512594 -0.000000 0.000000 0.000000 -1.593071 -0.323740 -0.216652 0.000000 0.000000 0.000000 -0.000000 0.000000 0.000000 2.073123 -1.497066 -0.564906 0.689989 7.017403 1.684538 3.176506 -10.052439 -1.853614 0.000000 0.000000 0.000000 0.000000 0.000000 0.000000 -1.030331 0.547030 0.129399 3.285139 -1.409271 -0.624327 1.475812 -0.254585 -0.008229 -6.426356 -6.132637 0.403080 0.000000 0.000000 0.000000 0.000000 0.000000 0.000000 -0.286510 0.041165 0.512594 1.027389 -1.118880 0.235672 0.567058 -1.315894 -1.275079 0.000000 0.000000 0.000000 -0.154267 -2.179638 0.176236 1.666191 1.850259 0.993790 -1.406067 -2.935764 -0.505296 0.000000 0.000000 0.000000
